<?xml version="1.0" encoding="utf-8"?>
<!-- Generator: Adobe Illustrator 23.0.2, SVG Export Plug-In . SVG Version: 6.00 Build 0)  -->
<svg version="1.1" id="Слой_1" xmlns="http://www.w3.org/2000/svg" xmlns:xlink="http://www.w3.org/1999/xlink" x="0px" y="0px"
	 viewBox="0 0 184 45" style="enable-background:new 0 0 184 45;" xml:space="preserve">
<style type="text/css">
	.st0{fill:#FFFFFF;}
</style>
<path class="st0" d="M45.1,0c0,0-14.4,6.7-18.8,16.8c-2.3,5.4-2.9,11.9-7.1,15.9c-2.9,2.8-7,3.8-10.6,5.7C6.3,39.6,1.9,42.5,0,45h33
	c6.6,0,12-5.4,12-12V0z M61.7,23.5V15c0-0.2,0.2-0.3,0.3-0.3h5.4c1,0,1.9,0.4,1.9,1.9v6.8c0,1-0.9,1.9-1.9,1.9h-4.2
	C62.4,25,61.8,24.4,61.7,23.5z M60,12.1c-0.6,0-1,0.4-1,1v22.3h2.4c0.2,0,0.3-0.2,0.3-0.3v-8.3c0.4,0.5,1.2,1,2.1,1h3.6
	c2.5,0,4.6-1.8,4.6-4.4v-6.8c0-3.1-2.1-4.4-4.6-4.4H60z M75.9,12.1v15.3c0,0.2,0.2,0.3,0.3,0.3h2.4V12.4c0-0.2-0.2-0.3-0.3-0.3H75.9
	z M75.9,5v2.6c0,0.2,0.2,0.3,0.3,0.3h2.4V5.4c0-0.2-0.2-0.3-0.3-0.3H75.9z M85.3,18.2v-1.7c0-1.2,0.8-1.9,1.9-1.9h4.3
	c1.2,0,1.8,0.6,1.8,1.9v1.7c0,0.2-0.2,0.3-0.3,0.3h-7.3C85.4,18.5,85.3,18.3,85.3,18.2z M87.2,12.1c-2.5,0-4.6,1.6-4.6,4.5v6.6
	c0,2.5,2,4.6,4.6,4.6h8.1v-2.3c0-0.2-0.2-0.3-0.3-0.3h-7.8c-1,0-1.9-0.8-1.9-1.9v-2.8c0.3,0.4,0.7,0.6,1.2,0.6h8.6
	c0.7,0,0.8-0.4,0.8-1v-3.6c0-2.9-2-4.5-4.6-4.5L87.2,12.1L87.2,12.1z M102.3,23.3v-6.8c0-1,0.8-1.9,1.9-1.9h4.2
	c0.8,0.1,1.4,0.7,1.5,1.6v8.5c0,0.2-0.2,0.3-0.3,0.3h-5.4C103.1,25.1,102.3,24.3,102.3,23.3z M110.2,4.2c-0.2,0-0.3,0.2-0.3,0.3v8.5
	c-0.4-0.5-1.2-1-2.2-1H104c-2.5,0-4.5,2-4.5,4.6v6.5c0,2.5,2,4.6,4.6,4.6h7.5c0.6,0,1-0.4,1-1V4.2H110.2z M120.6,23.5V15
	c0-0.2,0.2-0.3,0.3-0.3h5.4c1,0,1.9,0.4,1.9,1.9v6.8c0,1-0.9,1.9-1.9,1.9H122C121.2,25,120.6,24.4,120.6,23.5z M118.8,12.1
	c-0.6,0-1,0.4-1,1v22.3h2.4c0.2,0,0.3-0.2,0.3-0.3v-8.3c0.4,0.5,1.2,1,2.1,1h3.6c2.5,0,4.6-1.8,4.6-4.4v-6.8c0-3.1-2.1-4.4-4.6-4.4
	H118.8z M134.7,12.1v15.3c0,0.2,0.2,0.3,0.4,0.3h2.4V12.4c0-0.2-0.2-0.3-0.4-0.3H134.7z M134.7,5v2.6c0,0.2,0.2,0.3,0.4,0.3h2.4V5.4
	c0-0.2-0.2-0.3-0.4-0.3H134.7z M144.2,23.5V15c0-0.2,0.2-0.3,0.4-0.3h5.4c1,0,1.9,0.4,1.9,1.9v6.8c0,1-0.9,1.9-1.9,1.9h-4.2
	C144.9,25,144.3,24.4,144.2,23.5z M142.5,12.1c-0.6,0-1,0.4-1,1v22.3h2.4c0.2,0,0.3-0.2,0.3-0.3v-8.3c0.4,0.5,1.2,1,2.1,1h3.6
	c2.5,0,4.6-1.8,4.6-4.4v-6.8c0-3.1-2.1-4.4-4.6-4.4H142.5z M161,18.2v-1.7c0-1.2,0.8-1.9,1.9-1.9h4.3c1.2,0,1.8,0.6,1.8,1.9v1.7
	c0,0.2-0.2,0.3-0.4,0.3h-7.3C161.2,18.5,161,18.3,161,18.2z M162.9,12.1c-2.5,0-4.6,1.6-4.6,4.5v6.6c0,2.5,2,4.6,4.6,4.6h8.1v-2.3
	c0-0.2-0.2-0.3-0.3-0.3h-7.8c-1,0-1.9-0.8-1.9-1.9v-2.8c0.3,0.4,0.7,0.6,1.2,0.6h8.6c0.7,0,0.8-0.4,0.8-1v-3.6c0-2.9-2-4.5-4.6-4.5
	L162.9,12.1L162.9,12.1z M180.3,12.1c-1,0-1.7,0.5-2.1,1v-0.7c0-0.2-0.2-0.3-0.4-0.3h-2.4v15.3c0,0.2,0.2,0.3,0.3,0.3h2.4V16.1
	c0.1-0.7,0.7-1.4,1.5-1.4h3.9c0.2,0,0.4-0.2,0.4-0.3v-2.3L180.3,12.1L180.3,12.1z"/>
<path class="st0" d="M3.3,38.9L0.1,45V12c0-6.6,5.4-12,12-12h33c-9.4,2.9-19.1,9.5-25.6,17C12.4,25.2,8.4,30.8,3.3,38.9z"/>
</svg>
