<?xml version="1.0" encoding="utf-8"?>
<!-- Generator: Adobe Illustrator 23.0.2, SVG Export Plug-In . SVG Version: 6.00 Build 0)  -->
<svg version="1.1" id="Слой_1" xmlns="http://www.w3.org/2000/svg" xmlns:xlink="http://www.w3.org/1999/xlink" x="0px" y="0px"
	 viewBox="0 0 45.1 45" style="enable-background:new 0 0 45.1 45;" xml:space="preserve">
<style type="text/css">
	.st0{fill:none;}
	.st1{fill:#FFFFFF;}
</style>
<rect class="st0" width="45" height="45"/>
<path class="st1" d="M26.3,16.8c-2.3,5.4-2.9,11.9-7.1,15.9c-2.9,2.8-7,3.8-10.6,5.7C6.3,39.6,1.9,42.5,0,45h33c6.6,0,12-5.4,12-12
	V0C45.1,0,30.7,6.7,26.3,16.8z"/>
<path class="st1" d="M3.3,38.9L0,45V12C0,5.4,5.4,0,12,0h33c-9.4,2.9-19.1,9.5-25.6,17C12.4,25.2,8.4,30.8,3.3,38.9z"/>
</svg>
