<?xml version="1.0" encoding="utf-8"?>
<!-- Generator: Adobe Illustrator 23.0.2, SVG Export Plug-In . SVG Version: 6.00 Build 0)  -->
<svg version="1.1" id="Слой_1" xmlns="http://www.w3.org/2000/svg" xmlns:xlink="http://www.w3.org/1999/xlink" x="0px" y="0px"
	 viewBox="0 0 125 31.8" style="enable-background:new 0 0 125 31.8;" xml:space="preserve">
<style type="text/css">
	.st0{fill:none;}
</style>
<path class="st0" d="M91,7.8h-7.5c-0.6,0-1,0.4-1,1v22.3h2.4c0.2,0,0.3-0.2,0.3-0.3v-8.3c0.4,0.5,1.2,1,2.1,1H91
	c2.5,0,4.6-1.8,4.6-4.4v-6.8C95.6,9.2,93.5,7.8,91,7.8z M92.9,19c0,1-0.9,1.9-1.9,1.9h-4.2c-0.8-0.1-1.4-0.8-1.5-1.6v-8.5
	c0-0.2,0.2-0.3,0.4-0.3H91c1,0,1.9,0.4,1.9,1.9V19z"/>
<path class="st0" d="M8.5,7.8H1c-0.6,0-1,0.4-1,1v22.3h2.4c0.2,0,0.3-0.2,0.3-0.3v-8.3c0.4,0.5,1.2,1,2.1,1h3.6
	c2.5,0,4.6-1.8,4.6-4.4v-6.8C13.1,9.2,11,7.8,8.5,7.8z M10.4,19c0,1-0.9,1.9-1.9,1.9H4.3c-0.8-0.1-1.5-0.8-1.5-1.6v-8.5
	c0-0.2,0.2-0.3,0.3-0.3h5.4c1,0,1.9,0.4,1.9,1.9V19z"/>
<path class="st0" d="M121.4,7.9L121.4,7.9c-1,0-1.7,0.4-2.1,1V8.1c0-0.2-0.2-0.3-0.4-0.3h-2.4v15.3c0,0.2,0.2,0.3,0.3,0.3h2.4V11.9
	c0.1-0.7,0.7-1.4,1.5-1.4h3.9c0.2,0,0.4-0.2,0.4-0.3V7.9H121.4z"/>
<path class="st0" d="M19.3,7.8h-2.4v15.3c0,0.2,0.2,0.3,0.3,0.3h2.4V8.1C19.7,8,19.5,7.8,19.3,7.8z"/>
<path class="st0" d="M78.1,7.8h-2.4v15.3c0,0.2,0.2,0.3,0.4,0.3h2.4V8.1C78.5,8,78.3,7.8,78.1,7.8z"/>
<path class="st0" d="M67.3,7.8h-7.5c-0.6,0-1,0.4-1,1v22.3h2.4c0.2,0,0.3-0.2,0.3-0.3v-8.3c0.4,0.5,1.2,1,2.1,1h3.6
	c2.5,0,4.6-1.8,4.6-4.4v-6.8C71.9,9.2,69.8,7.8,67.3,7.8z M69.2,19c0,1-0.9,1.9-1.9,1.9h-4.2c-0.8-0.1-1.4-0.8-1.5-1.6v-8.5
	c0-0.2,0.2-0.3,0.3-0.3h5.4c1,0,1.9,0.4,1.9,1.9V19z"/>
<path class="st0" d="M50.9,0.3v8.5c-0.4-0.5-1.2-1-2.2-1H45c-2.5,0-4.5,2-4.5,4.6v6.5c0,2.5,2,4.6,4.6,4.6h7.5c0.6,0,1-0.4,1-1V0
	h-2.4C51,0,50.9,0.2,50.9,0.3z M50.9,20.6c0,0.2-0.2,0.3-0.3,0.3h-5.4c-1,0-1.9-0.8-1.9-1.8v-6.8c0-1,0.8-1.9,1.9-1.9h4.2
	c0.8,0.1,1.4,0.7,1.5,1.6V20.6z"/>
<path class="st0" d="M108.1,7.8h-4.2v0c-2.5,0-4.6,1.6-4.6,4.5v6.6c0,2.5,2,4.6,4.6,4.6h8.1v-2.3c0-0.2-0.2-0.3-0.4-0.3h-7.8
	c-1,0-1.9-0.8-1.9-1.9v-2.8c0.3,0.4,0.7,0.6,1.2,0.6h8.6c0.7,0,0.8-0.4,0.8-1v-3.6C112.7,9.3,110.6,7.8,108.1,7.8z M110.1,14
	c0,0.2-0.2,0.3-0.4,0.3h-7.3c-0.2,0-0.3-0.2-0.3-0.3v-1.7c0-1.2,0.8-1.9,1.9-1.9h4.3c1.2,0,1.8,0.6,1.8,1.9V14z"/>
<path class="st0" d="M32.4,7.8h-4.2v0c-2.5,0-4.6,1.6-4.6,4.5v6.6c0,2.5,2,4.6,4.6,4.6h8.1v-2.3c0-0.2-0.2-0.3-0.3-0.3h-7.8
	c-1,0-1.9-0.8-1.9-1.9v-2.8c0.3,0.4,0.7,0.6,1.2,0.6h8.6c0.7,0,0.8-0.4,0.8-1v-3.6C37,9.3,35,7.8,32.4,7.8z M34.3,14
	c0,0.2-0.2,0.3-0.3,0.3h-7.3c-0.2,0-0.3-0.2-0.3-0.3v-1.7c0-1.2,0.8-1.9,1.9-1.9h4.3c1.2,0,1.8,0.6,1.8,1.9V14z"/>
</svg>
